<mxfile host="Electron" modified="2024-02-11T18:23:34.916Z" agent="Mozilla/5.0 (Macintosh; Intel Mac OS X 10_15_7) AppleWebKit/537.36 (KHTML, like Gecko) draw.io/23.0.2 Chrome/120.0.6099.109 Electron/28.1.0 Safari/537.36" etag="sQI9WKk6v935k38Bv0-n" version="23.0.2" type="device">
  <diagram name="Page-1" id="JegNckF4E2gYKPsGKtVs">
    <mxGraphModel dx="1009" dy="731" grid="1" gridSize="10" guides="1" tooltips="1" connect="1" arrows="1" fold="1" page="1" pageScale="1" pageWidth="850" pageHeight="1100" math="0" shadow="0">
      <root>
        <mxCell id="0" />
        <mxCell id="1" parent="0" />
        <mxCell id="uTi5nny47nryEBhad-pZ-4" value="" style="edgeStyle=orthogonalEdgeStyle;rounded=0;orthogonalLoop=1;jettySize=auto;html=1;strokeColor=#fa0000;strokeWidth=2;" parent="1" edge="1">
          <mxGeometry relative="1" as="geometry">
            <mxPoint x="440" y="360" as="sourcePoint" />
            <mxPoint x="440" y="340" as="targetPoint" />
          </mxGeometry>
        </mxCell>
        <mxCell id="uTi5nny47nryEBhad-pZ-7" style="edgeStyle=orthogonalEdgeStyle;rounded=1;orthogonalLoop=1;jettySize=auto;html=1;entryX=0.5;entryY=1;entryDx=0;entryDy=0;curved=0;strokeColor=#fa0000;exitX=1;exitY=0.25;exitDx=0;exitDy=0;strokeWidth=2;" parent="1" source="uTi5nny47nryEBhad-pZ-2" target="uTi5nny47nryEBhad-pZ-5" edge="1">
          <mxGeometry relative="1" as="geometry" />
        </mxCell>
        <mxCell id="uTi5nny47nryEBhad-pZ-10" value="" style="edgeStyle=orthogonalEdgeStyle;rounded=0;orthogonalLoop=1;jettySize=auto;html=1;strokeColor=#ff0000;strokeWidth=2;" parent="1" source="uTi5nny47nryEBhad-pZ-2" target="uTi5nny47nryEBhad-pZ-9" edge="1">
          <mxGeometry relative="1" as="geometry" />
        </mxCell>
        <mxCell id="uTi5nny47nryEBhad-pZ-14" value="" style="edgeStyle=orthogonalEdgeStyle;rounded=0;orthogonalLoop=1;jettySize=auto;html=1;strokeWidth=2;strokeColor=#fa0000;" parent="1" edge="1">
          <mxGeometry relative="1" as="geometry">
            <mxPoint x="420" y="420" as="sourcePoint" />
            <mxPoint x="420" y="500" as="targetPoint" />
          </mxGeometry>
        </mxCell>
        <mxCell id="FaZ9XzFU6VKt12EoZ6Vk-2" value="" style="edgeStyle=orthogonalEdgeStyle;rounded=1;orthogonalLoop=1;jettySize=auto;html=1;curved=0;exitX=1;exitY=0.5;exitDx=0;exitDy=0;strokeColor=#fa0000;strokeWidth=2;" edge="1" parent="1" source="uTi5nny47nryEBhad-pZ-2" target="FaZ9XzFU6VKt12EoZ6Vk-1">
          <mxGeometry relative="1" as="geometry" />
        </mxCell>
        <mxCell id="uTi5nny47nryEBhad-pZ-2" value="Login&lt;br&gt;ViewController" style="rounded=0;whiteSpace=wrap;html=1;" parent="1" vertex="1">
          <mxGeometry x="360" y="360" width="120" height="60" as="geometry" />
        </mxCell>
        <mxCell id="uTi5nny47nryEBhad-pZ-6" value="" style="edgeStyle=orthogonalEdgeStyle;rounded=0;orthogonalLoop=1;jettySize=auto;html=1;strokeWidth=2;" parent="1" edge="1">
          <mxGeometry relative="1" as="geometry">
            <mxPoint x="480" y="300" as="sourcePoint" />
            <mxPoint x="500" y="300" as="targetPoint" />
          </mxGeometry>
        </mxCell>
        <mxCell id="FaZ9XzFU6VKt12EoZ6Vk-9" style="edgeStyle=orthogonalEdgeStyle;rounded=0;orthogonalLoop=1;jettySize=auto;html=1;entryX=0.25;entryY=0;entryDx=0;entryDy=0;exitX=0.25;exitY=1;exitDx=0;exitDy=0;strokeWidth=2;" edge="1" parent="1">
          <mxGeometry relative="1" as="geometry">
            <mxPoint x="400" y="340" as="sourcePoint" />
            <mxPoint x="400" y="360" as="targetPoint" />
          </mxGeometry>
        </mxCell>
        <mxCell id="FaZ9XzFU6VKt12EoZ6Vk-10" style="edgeStyle=orthogonalEdgeStyle;rounded=0;orthogonalLoop=1;jettySize=auto;html=1;entryX=0.5;entryY=1;entryDx=0;entryDy=0;strokeWidth=2;" edge="1" parent="1" source="uTi5nny47nryEBhad-pZ-3" target="FaZ9XzFU6VKt12EoZ6Vk-7">
          <mxGeometry relative="1" as="geometry" />
        </mxCell>
        <mxCell id="uTi5nny47nryEBhad-pZ-3" value="AppDelegate" style="rounded=0;whiteSpace=wrap;html=1;fillColor=#e51400;fontColor=#ffffff;strokeColor=#B20000;" parent="1" vertex="1">
          <mxGeometry x="360" y="280" width="120" height="60" as="geometry" />
        </mxCell>
        <mxCell id="FaZ9XzFU6VKt12EoZ6Vk-15" style="edgeStyle=orthogonalEdgeStyle;rounded=0;orthogonalLoop=1;jettySize=auto;html=1;entryX=1;entryY=0.5;entryDx=0;entryDy=0;strokeColor=#f90101;strokeWidth=2;" edge="1" parent="1">
          <mxGeometry relative="1" as="geometry">
            <mxPoint x="500" y="320" as="sourcePoint" />
            <mxPoint x="480" y="320" as="targetPoint" />
          </mxGeometry>
        </mxCell>
        <mxCell id="FaZ9XzFU6VKt12EoZ6Vk-17" value="" style="edgeStyle=orthogonalEdgeStyle;rounded=1;orthogonalLoop=1;jettySize=auto;html=1;entryX=0;entryY=0.5;entryDx=0;entryDy=0;exitX=0.75;exitY=0;exitDx=0;exitDy=0;curved=0;strokeWidth=2;" edge="1" parent="1" source="uTi5nny47nryEBhad-pZ-5" target="FaZ9XzFU6VKt12EoZ6Vk-16">
          <mxGeometry relative="1" as="geometry" />
        </mxCell>
        <mxCell id="FaZ9XzFU6VKt12EoZ6Vk-20" style="edgeStyle=orthogonalEdgeStyle;rounded=1;orthogonalLoop=1;jettySize=auto;html=1;entryX=1;entryY=0.5;entryDx=0;entryDy=0;exitX=0.25;exitY=0;exitDx=0;exitDy=0;curved=0;strokeWidth=2;" edge="1" parent="1" source="uTi5nny47nryEBhad-pZ-5" target="FaZ9XzFU6VKt12EoZ6Vk-7">
          <mxGeometry relative="1" as="geometry" />
        </mxCell>
        <mxCell id="FaZ9XzFU6VKt12EoZ6Vk-23" style="edgeStyle=orthogonalEdgeStyle;rounded=0;orthogonalLoop=1;jettySize=auto;html=1;strokeWidth=2;" edge="1" parent="1" source="uTi5nny47nryEBhad-pZ-5" target="FaZ9XzFU6VKt12EoZ6Vk-1">
          <mxGeometry relative="1" as="geometry" />
        </mxCell>
        <mxCell id="uTi5nny47nryEBhad-pZ-5" value="API" style="rounded=0;whiteSpace=wrap;html=1;fillColor=#e51400;fontColor=#ffffff;strokeColor=#B20000;" parent="1" vertex="1">
          <mxGeometry x="500" y="280" width="120" height="60" as="geometry" />
        </mxCell>
        <mxCell id="uTi5nny47nryEBhad-pZ-9" value="Skin" style="whiteSpace=wrap;html=1;rounded=0;fillColor=#e51400;fontColor=#ffffff;strokeColor=#B20000;" parent="1" vertex="1">
          <mxGeometry x="200" y="360" width="120" height="60" as="geometry" />
        </mxCell>
        <mxCell id="FaZ9XzFU6VKt12EoZ6Vk-19" value="" style="edgeStyle=orthogonalEdgeStyle;rounded=0;orthogonalLoop=1;jettySize=auto;html=1;strokeWidth=2;" edge="1" parent="1" source="uTi5nny47nryEBhad-pZ-11" target="FaZ9XzFU6VKt12EoZ6Vk-18">
          <mxGeometry relative="1" as="geometry" />
        </mxCell>
        <mxCell id="uTi5nny47nryEBhad-pZ-11" value="UIViewController&lt;br&gt;+Alert" style="rounded=0;whiteSpace=wrap;html=1;fillColor=#e51400;fontColor=#ffffff;strokeColor=#B20000;" parent="1" vertex="1">
          <mxGeometry x="360" y="500" width="120" height="60" as="geometry" />
        </mxCell>
        <mxCell id="uTi5nny47nryEBhad-pZ-16" style="edgeStyle=orthogonalEdgeStyle;rounded=1;orthogonalLoop=1;jettySize=auto;html=1;curved=0;exitX=0.25;exitY=1;exitDx=0;exitDy=0;entryX=1;entryY=0.5;entryDx=0;entryDy=0;strokeColor=#60a916;strokeWidth=2;" parent="1" source="uTi5nny47nryEBhad-pZ-2" target="uTi5nny47nryEBhad-pZ-15" edge="1">
          <mxGeometry relative="1" as="geometry" />
        </mxCell>
        <mxCell id="uTi5nny47nryEBhad-pZ-15" value="Validators" style="rounded=0;whiteSpace=wrap;html=1;strokeColor=#2D7600;fillColor=#60a917;fontColor=#ffffff;" parent="1" vertex="1">
          <mxGeometry x="200" y="430" width="120" height="60" as="geometry" />
        </mxCell>
        <mxCell id="FaZ9XzFU6VKt12EoZ6Vk-11" style="edgeStyle=orthogonalEdgeStyle;rounded=1;orthogonalLoop=1;jettySize=auto;html=1;entryX=1;entryY=0.088;entryDx=0;entryDy=0;exitX=0.675;exitY=0.983;exitDx=0;exitDy=0;curved=0;entryPerimeter=0;exitPerimeter=0;strokeWidth=2;" edge="1" parent="1" source="FaZ9XzFU6VKt12EoZ6Vk-1" target="FaZ9XzFU6VKt12EoZ6Vk-3">
          <mxGeometry relative="1" as="geometry" />
        </mxCell>
        <mxCell id="FaZ9XzFU6VKt12EoZ6Vk-1" value="APIDelegate" style="whiteSpace=wrap;html=1;rounded=0;fillColor=#e51400;fontColor=#ffffff;strokeColor=#B20000;" vertex="1" parent="1">
          <mxGeometry x="640" y="280" width="120" height="60" as="geometry" />
        </mxCell>
        <mxCell id="FaZ9XzFU6VKt12EoZ6Vk-3" value="&lt;b&gt;&lt;u&gt;Models&lt;/u&gt;&lt;/b&gt;&lt;br&gt;Event&lt;br&gt;Employee&lt;br&gt;Announcement&lt;br&gt;Product&lt;br&gt;PurchaseOrder&lt;br&gt;UserInfo" style="whiteSpace=wrap;html=1;rounded=0;fillColor=#e51400;strokeColor=#B20000;fontColor=#ffffff;" vertex="1" parent="1">
          <mxGeometry x="520" y="400" width="120" height="160" as="geometry" />
        </mxCell>
        <mxCell id="FaZ9XzFU6VKt12EoZ6Vk-5" style="edgeStyle=orthogonalEdgeStyle;rounded=0;orthogonalLoop=1;jettySize=auto;html=1;entryX=0;entryY=0.081;entryDx=0;entryDy=0;entryPerimeter=0;exitX=1;exitY=0.883;exitDx=0;exitDy=0;exitPerimeter=0;strokeColor=#fa0000;strokeWidth=2;" edge="1" parent="1" source="uTi5nny47nryEBhad-pZ-2" target="FaZ9XzFU6VKt12EoZ6Vk-3">
          <mxGeometry relative="1" as="geometry" />
        </mxCell>
        <mxCell id="FaZ9XzFU6VKt12EoZ6Vk-7" value="Configuration" style="whiteSpace=wrap;html=1;rounded=0;" vertex="1" parent="1">
          <mxGeometry x="360" y="200" width="120" height="60" as="geometry" />
        </mxCell>
        <mxCell id="FaZ9XzFU6VKt12EoZ6Vk-16" value="Token" style="whiteSpace=wrap;html=1;rounded=0;" vertex="1" parent="1">
          <mxGeometry x="640" y="200" width="120" height="60" as="geometry" />
        </mxCell>
        <mxCell id="FaZ9XzFU6VKt12EoZ6Vk-21" style="edgeStyle=orthogonalEdgeStyle;rounded=0;orthogonalLoop=1;jettySize=auto;html=1;entryX=0.875;entryY=0.983;entryDx=0;entryDy=0;exitX=1;exitY=0.5;exitDx=0;exitDy=0;entryPerimeter=0;curved=1;strokeWidth=2;" edge="1" parent="1" source="FaZ9XzFU6VKt12EoZ6Vk-18" target="uTi5nny47nryEBhad-pZ-2">
          <mxGeometry relative="1" as="geometry">
            <Array as="points">
              <mxPoint x="510" y="610" />
              <mxPoint x="510" y="480" />
              <mxPoint x="465" y="480" />
            </Array>
          </mxGeometry>
        </mxCell>
        <mxCell id="FaZ9XzFU6VKt12EoZ6Vk-22" style="edgeStyle=orthogonalEdgeStyle;rounded=1;orthogonalLoop=1;jettySize=auto;html=1;entryX=0;entryY=0.5;entryDx=0;entryDy=0;curved=0;strokeWidth=2;" edge="1" parent="1" source="FaZ9XzFU6VKt12EoZ6Vk-18" target="uTi5nny47nryEBhad-pZ-9">
          <mxGeometry relative="1" as="geometry" />
        </mxCell>
        <mxCell id="FaZ9XzFU6VKt12EoZ6Vk-18" value="Error&lt;br&gt;ViewController" style="whiteSpace=wrap;html=1;rounded=0;" vertex="1" parent="1">
          <mxGeometry x="360" y="580" width="120" height="60" as="geometry" />
        </mxCell>
      </root>
    </mxGraphModel>
  </diagram>
</mxfile>
